<svg xmlns="http://www.w3.org/2000/svg" width="1024" height="1024" viewBox="0 0 1024 1024">
  <rect width="1024" height="1024" rx="200" fill="#3B82F6"/>
  <g transform="translate(256, 256) scale(2)">
    <path fill="white" d="M256 64C185.4 64 128 121.4 128 192c0 52.6 31.8 97.7 77.2 117.2c-4.5 29.3-19.4 54.8-42.4 72.7c-3.9 3-6.8 7.3-8.1 12.2s-.9 10 .8 14.6c1.8 4.6 5 8.4 9.2 10.7c4.2 2.3 9 3 13.6 2c67.8-14.6 125.9-57.2 156.9-115.8c4.5.9 9.1 1.4 13.8 1.4c70.6 0 128-57.4 128-128S326.6 64 256 64zM192 192a64 64 0 1 1 128 0 64 64 0 1 1-128 0z"/>
  </g>
</svg>
